<svg xmlns="http://www.w3.org/2000/svg" viewBox="0 0 260 260"><defs><radialGradient id="bg"><stop stop-color="#405742"/><stop offset="1" stop-color="#15261f"/></radialGradient></defs><rect width="260" height="260" fill="url(#bg)"/><path d="m86 169-14 69 40-16 18 24 18-24 40 16-14-69" fill="#7f4c33" stroke="#bc8b56" stroke-width="3"/><circle cx="130" cy="130" r="87" fill="#273c2c" stroke="#d6b977" stroke-width="5"/><circle cx="130" cy="130" r="76" fill="none" stroke="#7b8c58" stroke-width="2" stroke-dasharray="3 8"/><g fill="none" stroke="#ead3a1" stroke-width="6" stroke-linecap="round" stroke-linejoin="round"><path d="M159 76a60 60 0 1 0 25 96 50 50 0 0 1-25-96z"/><path d="m182 97 4 9 10 2-8 7 1 10-9-5-9 5 2-10-7-7 10-2z"/></g><circle cx="130" cy="207" r="4" fill="#ead3a1"/></svg>